<svg xmlns="http://www.w3.org/2000/svg" viewBox="0 0 197.5 56.2"><defs><style>.cls-1{isolation:isolate;}.cls-10,.cls-2{mix-blend-mode:multiply;}.cls-3{fill:#e50012;}.cls-4{fill:#a40b5e;}.cls-5{fill:#036eb7;}.cls-6{fill:#2ca6e0;}.cls-7{fill:#00913a;}.cls-8{fill:gold;}.cls-9{fill:#f29600;}.cls-10{fill:#cd000d;}.cls-11{fill:#3e3a39;}</style></defs><title>logo</title><g class="cls-1"><g id="图层_1" data-name="图层 1"><g class="cls-2"><path class="cls-3" d="M30,13.5A7,7,0,0,1,24.6,11a18.31,18.31,0,0,0-1.49,7.64c0,6.68,3.19,12.07,7,12S37,25.23,36.94,18.55a18.36,18.36,0,0,0-1.6-7.61A7,7,0,0,1,30,13.5Z" transform="translate(-1.5 -1.44)"/><circle class="cls-3" cx="29.94" cy="6.51" r="5.07" transform="translate(-1.55 -1.22) rotate(-0.42)"/></g><g class="cls-2"><path class="cls-4" d="M16.59,20.07a7,7,0,0,1-5.3,2.67,18.33,18.33,0,0,0,5,5.93c5.25,4.13,11.42,5,13.79,2s0-8.79-5.24-12.91a18.32,18.32,0,0,0-7-3.49A7,7,0,0,1,16.59,20.07Z" transform="translate(-1.5 -1.44)"/><circle class="cls-4" cx="11.09" cy="15.75" r="5.07" transform="translate(-9.65 13.31) rotate(-51.86)"/></g><g class="cls-2"><path class="cls-5" d="M13.37,34.65a7,7,0,0,1-1.22,5.81,18.31,18.31,0,0,0,7.78-.24c6.5-1.53,11.06-5.79,10.18-9.51s-6.86-5.49-13.36-4A18.34,18.34,0,0,0,9.69,30,7,7,0,0,1,13.37,34.65Z" transform="translate(-1.5 -1.44)"/><circle class="cls-5" cx="6.57" cy="36.25" r="5.07" transform="translate(-9.65 1.04) rotate(-13.28)"/></g><g class="cls-2"><path class="cls-6" d="M22.77,46.25a7,7,0,0,1,3.78,4.57,18.33,18.33,0,0,0,4.66-6.23c2.85-6,2.37-12.26-1.09-13.89s-8.57,1.94-11.42,8a18.33,18.33,0,0,0-1.86,7.55A7,7,0,0,1,22.77,46.25Z" transform="translate(-1.5 -1.44)"/><circle class="cls-6" cx="19.78" cy="52.57" r="5.07" transform="translate(-37.7 46.56) rotate(-64.72)"/></g><g class="cls-2"><path class="cls-7" d="M37.69,46.14a7,7,0,0,1,5.93-.1,18.32,18.32,0,0,0-2-7.53c-2.94-6-8.11-9.5-11.54-7.81s-3.83,7.91-.88,13.91A18.35,18.35,0,0,0,34,50.77,7,7,0,0,1,37.69,46.14Z" transform="translate(-1.5 -1.44)"/><circle class="cls-7" cx="40.77" cy="52.41" r="5.07" transform="translate(-20.42 21.88) rotate(-26.14)"/></g><g class="cls-2"><path class="cls-8" d="M46.91,34.4a7,7,0,0,1,3.62-4.7,18.34,18.34,0,0,0-7.11-3.15c-6.52-1.44-12.48.42-13.3,4.15s3.8,7.92,10.32,9.36a18.34,18.34,0,0,0,7.78.13A7,7,0,0,1,46.91,34.4Z" transform="translate(-1.5 -1.44)"/><circle class="cls-8" cx="53.74" cy="35.91" r="5.07" transform="translate(5.6 79.22) rotate(-77.57)"/></g><g class="cls-2"><path class="cls-9" d="M43.48,19.88a7,7,0,0,1-1.42-5.76,18.36,18.36,0,0,0-6.9,3.59c-5.19,4.2-7.45,10-5,13s8.56,2,13.75-2.23a18.34,18.34,0,0,0,5-6A7,7,0,0,1,43.48,19.88Z" transform="translate(-1.5 -1.44)"/><circle class="cls-9" cx="48.91" cy="15.48" r="5.07" transform="translate(-0.34 32.79) rotate(-39)"/></g><path class="cls-10" d="M36.94,18.55c0-.7,0-1.39-.12-2.06Q36,17,35.16,17.71c-5.19,4.2-7.45,10-5,13C33.94,30.67,37,25.23,36.94,18.55Z" transform="translate(-1.5 -1.44)"/><path class="cls-10" d="M35.3,26.5c-2.76.69-4.73,2.16-5.18,4.19C32.2,30.68,34,29.05,35.3,26.5Z" transform="translate(-1.5 -1.44)"/><path class="cls-11" d="M78.08,18.28l.47-.47a.74.74,0,0,1,.49.07,2.48,2.48,0,0,0,.54.21,3.84,3.84,0,0,0,.51-.21.82.82,0,0,1,.51-.07,3.12,3.12,0,0,1,1.54.75,4.93,4.93,0,0,1,1.07,1.59,5.38,5.38,0,0,1,1.12,1.91,2.61,2.61,0,0,1-.28,2,5,5,0,0,0-.12,1.84q.12.86.3,1.79a1.14,1.14,0,0,0,.82,1.12,2.65,2.65,0,0,0,1.52.19l7.09-2.7a3,3,0,0,1,2.73-.35,15.84,15.84,0,0,1,2.77,1.38.8.8,0,0,1,.49,1,1.47,1.47,0,0,1-.77.91c-.5.34-1,.63-1.38.86a3.71,3.71,0,0,1-1.23.44,50.85,50.85,0,0,0-5,2q-2.33,1.1-4.94,2.26l-.82.28a3.67,3.67,0,0,0-.86.47,4.14,4.14,0,0,0,.68,3.1,3.56,3.56,0,0,0,2.87,1.56,22.66,22.66,0,0,0,3.47-.26q1.65-.26,3.61-.49a3,3,0,0,1,2.31,0,16.46,16.46,0,0,1,2.54,1.24,1.54,1.54,0,0,1,.51,1.56,1.94,1.94,0,0,1-1.17,1.24l-2.33.7q-1.12.33-2.52.7a21.79,21.79,0,0,1-2.8.19H89a9.22,9.22,0,0,1-5.27-1.84,12.83,12.83,0,0,1-3.87-4.78c-.25-.4-.51-.61-.77-.63a1.74,1.74,0,0,0-.91.26q-1.54.7-3.05,1.21a13.3,13.3,0,0,1-3.1.65,19.7,19.7,0,0,1-2.45.12,9.46,9.46,0,0,1-2.4-.4,1.26,1.26,0,0,1-.82-.42,2.51,2.51,0,0,1-.49-.7,2.91,2.91,0,0,1-.75-3,2.13,2.13,0,0,1,2.42-1.28l.47.19A14.49,14.49,0,0,0,73,34q2.24-.63,5-1.61a1,1,0,0,0,.72-.63,3.41,3.41,0,0,0,.12-.86q-.19-2.7-.14-5T78.55,21a3.55,3.55,0,0,1-.7-1.38A3.59,3.59,0,0,1,78.08,18.28Z" transform="translate(-1.5 -1.44)"/><path class="cls-11" d="M122.93,15.11a5,5,0,0,1,1.49-.23c.5,0,1,0,1.49,0,.59.22,1.16.41,1.7.58a12.12,12.12,0,0,1,1.75.72c.43.22.64.47.61.75a2,2,0,0,1-.42.93,13.06,13.06,0,0,0-.86,1.54q-.35.75-.72,1.63a13.29,13.29,0,0,0-.82,1.12,3.09,3.09,0,0,0-.49,1.3,2.53,2.53,0,0,1,.51.82.71.71,0,0,1-.23.77l-1.21,1.14a5.77,5.77,0,0,1-1.3.91,4.1,4.1,0,0,1-.7.28,2.22,2.22,0,0,0-.7.37,5.55,5.55,0,0,0-1,1.63q-.35.89-.68,1.82a.22.22,0,0,0,0,.28c.08.09.19.09.35,0a3.24,3.24,0,0,1,2.54-.65,5,5,0,0,1,2.68,1.68.79.79,0,0,1,.26.49,1.22,1.22,0,0,1-.16.63,6.79,6.79,0,0,1-.51.79,6.77,6.77,0,0,0-.51.79,36.28,36.28,0,0,0-1.45,5.92,50.45,50.45,0,0,1-1.35,6.11,5.34,5.34,0,0,1-.58,1,1.23,1.23,0,0,1-.91.51,2.39,2.39,0,0,1-1.4-.61,17.74,17.74,0,0,0-2-1.44,12.61,12.61,0,0,1-2.61-2,5.31,5.31,0,0,1-1.49-3.15c0-.4,0-.66.16-.77s.4,0,.77.21a8.09,8.09,0,0,0,2.19,1.52,7,7,0,0,0,2.28.54c.5.09.84,0,1-.23a4.8,4.8,0,0,0,.56-1.07l1.59-7.46a1,1,0,0,0-.19-.72q-.19-.16-.75.07a14,14,0,0,0-2.47,1.21,13.76,13.76,0,0,0-2.38,2c-.5.34-.89.44-1.19.3s-.49-.49-.58-1q.14-.74.21-1.4a2.89,2.89,0,0,1,.63-1.4l1.3-2.05c.12-.5.1-.79-.07-.89a1.21,1.21,0,0,0-.77,0,3.64,3.64,0,0,1-2.63.14,3.07,3.07,0,0,1-2-1.82,1.47,1.47,0,0,1,0-1.24c.19-.26.54-.35,1.07-.26a2.93,2.93,0,0,0,1.3.07,6.06,6.06,0,0,0,1.4-.54l2.52-1.1a21.84,21.84,0,0,0,2.52-1.33,5.89,5.89,0,0,0,.86-1.45q.3-.75.54-1.54c.15-.28.18-.5.07-.65a.52.52,0,0,0-.54-.19,3.06,3.06,0,0,1-2-.7A14.25,14.25,0,0,1,117.9,18q-.28-.89,1-1.26t1.93-.61a9.94,9.94,0,0,0,1-.49Zm17,8.21c.5-.71.86-1.09,1.07-1.12l1.35-.19a5,5,0,0,1,.44-.54.55.55,0,0,1,.49-.12,2.8,2.8,0,0,0,1.4.44,3,3,0,0,1,1.4.4c.56.16.87.45.93.89a1.91,1.91,0,0,1-.56,1.44,10.11,10.11,0,0,0-2.75,1.61A33.29,33.29,0,0,0,141,28.63l-2.15,1.66q-1,.77-2.14,1.89c-.12.16-.17.28-.14.37s.14.12.33.09a16.52,16.52,0,0,0,2.52-1,8.47,8.47,0,0,0,2.42-1.82,3.14,3.14,0,0,1,1.47-1,4,4,0,0,1,1.42-.07q.93.23,1.09.86a1,1,0,0,1-.54,1.09,10,10,0,0,0-3.15,2.05q-1.28,1.26-3,2.89Q138,37.21,137,38.42t-2.22,2.52q-.37.37-.19.54a.86.86,0,0,0,.65.12L139.16,40a1,1,0,0,0,.65-.63,1,1,0,0,0-.28-.86,1.29,1.29,0,0,1-.35-.58.61.61,0,0,1,.16-.44,7.44,7.44,0,0,1,6.69.93,8.33,8.33,0,0,1,3.19,5.87A1.24,1.24,0,0,1,149,45a2.07,2.07,0,0,1-.6.56,2.72,2.72,0,0,1-2.1-.51,9.22,9.22,0,0,1-1.91-1.91,3.27,3.27,0,0,0-1.07-1.07c-.25-.09-.64,0-1.17.33q-.79.23-1.47.46a4.81,4.81,0,0,0-1.42.84Q137,44.8,134.92,45.6t-4.34,1.77a1.37,1.37,0,0,1-1,0,1.46,1.46,0,0,1-.58-.84,5.5,5.5,0,0,1-.35-3.59,4.62,4.62,0,0,1,2.78-2.85l.65-.19q.7-.65,1.66-1.66t.77-1.51a18.86,18.86,0,0,0-2.8.86q-1.35.54-1.59-1.61l.65-2.52q1.16-.93,2.07-1.79l1.93-1.84c.28-.25.4-.41.35-.49s-.19-.1-.44-.07q-.88.28-1.61.56t-1.56.56a4.69,4.69,0,0,1-2.17.42,3.41,3.41,0,0,1-2.12-.89,6.75,6.75,0,0,1-.75-1.33c-.19-.45-.4-.91-.65-1.38a1,1,0,0,1,.4-.93c.29-.22.57-.09.82.37a2.81,2.81,0,0,0,1.33.77,3.53,3.53,0,0,0,1.28-.12,41.32,41.32,0,0,0,5.1-1.79Zm-4-9a1.42,1.42,0,0,1,.53-.19h.49a10.58,10.58,0,0,1,2.47.56A16.89,16.89,0,0,1,142,15.85q1.91,1.17,1.21,2.54a5.13,5.13,0,0,1-2.33,2.21l-1.28.26a6.39,6.39,0,0,1-1.24.12L134.4,22.1c-.22,0-.36,0-.42-.14s0-.3.23-.51L135.89,20a1.42,1.42,0,0,0,.53-.56.8.8,0,0,0,.12-.65l-.68-.68a1.84,1.84,0,0,1-.44-.72,2.15,2.15,0,0,1-.72-1.61A2.87,2.87,0,0,1,135.89,14.27Z" transform="translate(-1.5 -1.44)"/><path class="cls-11" d="M183,12.5l.47-.28,4.19.28A1.26,1.26,0,0,1,189,13.92a2.06,2.06,0,0,1-1.33,1.93,3,3,0,0,0-1.72,1.65q-.42,1.1.89,2.17a1.77,1.77,0,0,1,.56,1.45,6.43,6.43,0,0,1-.65,1.54,4.17,4.17,0,0,0-1,1.19,4.18,4.18,0,0,0-.23,1.33v.19c0,.06.09.12.28.19a1.24,1.24,0,0,0,.45-.19.66.66,0,0,1,.49-.09,6.09,6.09,0,0,0,1,.26c.33,0,.69.09,1.09.12q1.35.14,1.35,1.31t-1.35,1.49a11.4,11.4,0,0,0-2.31.14q-1.1.19-2.36.51a1.27,1.27,0,0,0-.63.26c-.11.11,0,.33.26.68q2.1,1.82,4,3.38a30.78,30.78,0,0,0,4.06,2.87l6.06,2.33a1.77,1.77,0,0,1,1.1,1.68q-.07,1-1.38,1.12a43.13,43.13,0,0,1-4.5-.51,10.09,10.09,0,0,1-4.45-2.1c-.53-.37-.85-.45-1-.23a4,4,0,0,1-.72.89l-3.82,1.68c-.5.09-.79.26-.89.49a2.8,2.8,0,0,0-.14,1,30.64,30.64,0,0,1-.21,3.66A7.34,7.34,0,0,1,180.09,50a2.58,2.58,0,0,1-.82.58c-.26.11-.58,0-1-.4a14.55,14.55,0,0,1-.91-2.14,2,2,0,0,1,.35-2.05,3.37,3.37,0,0,0,.4-1.37c0-.42,0-.86.07-1.33-.15-.34-.32-.51-.49-.51a1.86,1.86,0,0,0-.63.14,13.62,13.62,0,0,1-3.1,1q-1.47.28-3.15.56a2,2,0,0,1-1.65-.58,2.71,2.71,0,0,1-.68-1.66,2.84,2.84,0,0,1,1-1.35,5.12,5.12,0,0,1,1.51-1,.7.7,0,0,1,.59.28,2.5,2.5,0,0,0,.63.56,15.29,15.29,0,0,0,2.77-.16,6.91,6.91,0,0,0,2.82-1.14,5.33,5.33,0,0,1,1.21-.14,3.74,3.74,0,0,0,1.4-.33c.59-.22,1.18-.41,1.77-.58a6.89,6.89,0,0,0,2-1q.37-.37.61-.28l.7.28a.9.9,0,0,0,.61-.16q.19-.16-.23-.58-1.59-1.45-2.94-2.75A30.49,30.49,0,0,1,180.28,31c-.37-.4-.68-.58-.93-.54a2.72,2.72,0,0,0-.93.44Q176.5,32.45,174.8,34a32.74,32.74,0,0,0-3.38,3.59L168.06,41q-.79.51-1.47,1a5.86,5.86,0,0,0-1.24,1.24l-1.42,1a5,5,0,0,0-1.19,1.16,8.44,8.44,0,0,1-2.66,1.1,2.74,2.74,0,0,1-2.47-.44,3.12,3.12,0,0,1,.07-1.8A2,2,0,0,1,159,42.89c.5-.25,1-.53,1.52-.84s1.06-.68,1.66-1.12A59.26,59.26,0,0,0,167,36.18a56.39,56.39,0,0,0,4-5,.87.87,0,0,0,.07-.56c0-.09-.16-.09-.35,0a22.33,22.33,0,0,1-2.63,1.21,16.58,16.58,0,0,1-2.68.75,3.24,3.24,0,0,1-1.17-.12,1.23,1.23,0,0,1-.79-.91,2.84,2.84,0,0,1,.16-1.33,10.87,10.87,0,0,0,.4-1.56l1.07-.91a4,4,0,0,1,1.26-.68,3.08,3.08,0,0,0,.72-1.14.93.93,0,0,0-.35-1l-1.12-.56a2.36,2.36,0,0,1-.54-.3.36.36,0,0,1-.12-.44c-.16-.25-.25-.37-.28-.37s.06-.12.28-.37a1,1,0,0,1,.09-.51c.06-.09.25-.17.56-.23q.88-.51,1.7-.89l1.75-.79q.93-.42.82-1.19a1.47,1.47,0,0,0-.91-1.14l-1.77-.37a4,4,0,0,0-.88-.89,4.36,4.36,0,0,0-1-.42q-.51-.47-.35-.89a1.07,1.07,0,0,1,.72-.61,7.56,7.56,0,0,1,2.38-.84,13.87,13.87,0,0,0,2.47-.65,4.19,4.19,0,0,1,.81-.79,1.35,1.35,0,0,1,1.14,0,2.86,2.86,0,0,0,.89,0,4.48,4.48,0,0,1,1.07,0,2.86,2.86,0,0,1,2.12,1.38q.67,1.14-.82,2.45a2.71,2.71,0,0,0-1.19,1.77,3.37,3.37,0,0,0,.26,2,2.29,2.29,0,0,1,.33,1.16,1.72,1.72,0,0,1-.51,1.17,2.84,2.84,0,0,0-.89,1.75q-.09,1-.14,1.89a1.11,1.11,0,0,0,.35.47q.16.09.58-.28a1.49,1.49,0,0,1,.58-.44,2,2,0,0,1,.72-.12,10.6,10.6,0,0,1,1.12-.35c.22,0,.65.16,1.31.63a2.8,2.8,0,0,0,1.16,0,1,1,0,0,0,.89-.7,4.6,4.6,0,0,0-.89-1.17,8,8,0,0,0-1.16-1q-.84-.56-.82-1.1t.82-1l2-1a2.58,2.58,0,0,0,.91-.77,2,2,0,0,0,.3-.91,2.4,2.4,0,0,0-.09-1.28,3.73,3.73,0,0,0-1.12-.86,2.6,2.6,0,0,1-.77-.61,4.25,4.25,0,0,1-.44-.79q-.42-.93.65-1.07a6.25,6.25,0,0,0,1.86-.51,4.14,4.14,0,0,0,.67-.37A3.78,3.78,0,0,0,183,12.5ZM169.83,26.86l-.47.28-1.12,1c-.19.19-.23.33-.12.42a.36.36,0,0,0,.39,0,3.83,3.83,0,0,0,1.66-.47C170.7,27.88,170.58,27.45,169.83,26.86Zm8,6.62a2,2,0,0,1,1.52-.28,9.46,9.46,0,0,0,1.56.28q1.21.09,1,1.35a2.06,2.06,0,0,1-1.14,1.73,8.1,8.1,0,0,0-1.56.44,4.08,4.08,0,0,1-1.51.3.92.92,0,0,1-.58-.12c-.08-.08-.1-.26-.07-.54A1.3,1.3,0,0,0,177,36a4.71,4.71,0,0,0-.42-.56q-1-1-.3-1.28Z" transform="translate(-1.5 -1.44)"/></g></g></svg>