<?xml version="1.0" standalone="no"?><!DOCTYPE svg PUBLIC "-//W3C//DTD SVG 1.1//EN" "http://www.w3.org/Graphics/SVG/1.1/DTD/svg11.dtd"><svg class="icon" width="200px" height="200.00px" viewBox="0 0 1024 1024" version="1.1" xmlns="http://www.w3.org/2000/svg"><path d="M497.686505 137.854695l-2.498914 751.842507c0 0-69.978794 11.056823-117.464295 0l106.099457-751.85888L497.686505 137.854695z"  /><path d="M525.844821 888.252293c0 0 65.400522-15.496949 107.442034-49.081858l-14.013155-98.16474c0 0 277.253558-95.578846 334.004073-325.489142 56.747445-229.910297-263.934205-255.742638-390.060787-214.410278 0 0 237.33643-37.799908 291.960515 139.496078 54.624085 177.298032-238.238986 348.741729-238.238986 348.741729l-84.08507-563.152007-7.664563-0.337691L525.844821 888.252293z"  /><path d="M222.206336 803.007817 273.591657 779.756253 317.9704 810.754245 315.633169 761.676479 362.34812 738.425939 308.625568 728.090547 301.61899 679.009711 268.920264 722.924897 212.863551 720.341049 245.562277 748.756215Z"  /><path d="M70.481749 660.217716 111.129518 641.826857 146.233014 666.346297 144.384923 627.527177 181.337533 609.133248 138.842697 600.958054 133.30047 562.133817 107.433336 596.873016 63.091432 594.827427 88.958566 617.306394Z"  /><path d="M283.615964 598.22685 329.031317 546.68701 389.830031 557.079708 366.585631 505.524518 406.97962 456.397634 344.869027 473.046826 316.604286 423.906639 300.00319 488.008586 238.655983 514.197038 285.80891 527.844873Z"  /><path d="M179.465906 468.014206 199.32214 446.89726 224.918098 452.219475 215.724715 430.052616 233.426889 409.880181 206.939631 415.980109 195.591165 394.758786 187.770036 421.627736 161.488463 431.775864 181.268972 438.267718Z"  /><path d="M315.483766 336.681042 332.081793 328.433194 349.804433 333.324598 345.722464 321.905524 360.670921 313.909409 341.020372 314.38627 335.288834 303.219953 326.660316 315.317479 306.699706 317.742714 320.129576 322.658677Z"  /></svg>